<?xml version="1.0" encoding="UTF-8" standalone="no"?>
<!-- Created with Inkscape (http://www.inkscape.org/) -->

<svg
   xmlns:dc="http://purl.org/dc/elements/1.1/"
   xmlns:cc="http://creativecommons.org/ns#"
   xmlns:rdf="http://www.w3.org/1999/02/22-rdf-syntax-ns#"
   xmlns:svg="http://www.w3.org/2000/svg"
   xmlns="http://www.w3.org/2000/svg"
   xmlns:sodipodi="http://sodipodi.sourceforge.net/DTD/sodipodi-0.dtd"
   xmlns:inkscape="http://www.inkscape.org/namespaces/inkscape"
   width="48px"
   height="48px"
   id="svg2985"
   version="1.1"
   inkscape:version="0.48.4 r9939"
   sodipodi:docname="applogo.svg">
  <defs
     id="defs2987" />
  <sodipodi:namedview
     id="base"
     pagecolor="#ffffff"
     bordercolor="#666666"
     borderopacity="1.0"
     inkscape:pageopacity="0.0"
     inkscape:pageshadow="2"
     inkscape:zoom="9.8994949"
     inkscape:cx="-3.4977298"
     inkscape:cy="24.87868"
     inkscape:current-layer="layer1"
     showgrid="true"
     inkscape:grid-bbox="true"
     inkscape:document-units="px"
     inkscape:window-width="1920"
     inkscape:window-height="1005"
     inkscape:window-x="1911"
     inkscape:window-y="-9"
     inkscape:window-maximized="1" />
  <metadata
     id="metadata2990">
    <rdf:RDF>
      <cc:Work
         rdf:about="">
        <dc:format>image/svg+xml</dc:format>
        <dc:type
           rdf:resource="http://purl.org/dc/dcmitype/StillImage" />
        <dc:title />
      </cc:Work>
    </rdf:RDF>
  </metadata>
  <g
     id="layer1"
     inkscape:label="Layer 1"
     inkscape:groupmode="layer">
    <rect
       style="fill:#000000;fill-opacity:0.69841273;fill-rule:evenodd;stroke:#000000;stroke-width:1.04309404px;stroke-linecap:butt;stroke-linejoin:miter;stroke-opacity:1"
       id="rect2995"
       width="50.524128"
       height="50.060894"
       x="-0.90492177"
       y="-1.0477788" />
    <rect
       style="fill:#fbfeff;fill-opacity:1"
       id="rect3891"
       width="4.0483212"
       height="12.481602"
       x="-42.291744"
       y="-33.767426"
       transform="matrix(-0.99826298,-0.05891534,0.26457456,-0.96436523,0,0)" />
    <rect
       style="fill:#ffffff;fill-opacity:1"
       id="rect3895-5"
       width="1.8447607"
       height="6.6370358"
       x="9.1328287"
       y="48.207344"
       transform="matrix(0.72075804,-0.69318673,0.51811867,0.85530874,0,0)" />
    <rect
       style="fill:#fbffff;fill-opacity:1"
       id="rect3895-5-2"
       width="1.87108"
       height="6.5901175"
       x="36.241577"
       y="37.739017"
       transform="matrix(0.99540287,-0.09577639,-0.15412179,0.98805186,0,0)" />
    <rect
       style="fill:#ffffff;fill-opacity:1"
       id="rect3895-5-2-3"
       width="1.8503507"
       height="6.8439965"
       x="54.771706"
       y="22.210232"
       transform="matrix(0.91301986,0.40791511,-0.68793651,0.72577087,0,0)" />
    <rect
       style="fill:#fcffff;fill-opacity:1"
       id="rect3895-5-2-3-1"
       width="1.8698184"
       height="6.9734354"
       x="50.544979"
       y="24.161169"
       transform="matrix(0.90949743,0.41570954,-0.67963848,0.73354723,0,0)" />
    <rect
       style="fill:#f6ffff;fill-opacity:1"
       id="rect3895-5-6"
       width="1.3452675"
       height="5.1786537"
       x="20.436739"
       y="47.417103"
       transform="matrix(0.61275246,-0.7902749,0.41167143,0.91133234,0,0)" />
    <rect
       style="fill:#f6ffff;fill-opacity:1"
       id="rect3895-5-6-8"
       width="1.3620059"
       height="5.2633481"
       x="51.436859"
       y="9.1557713"
       transform="matrix(0.88946699,0.45699942,-0.8481055,0.52982738,0,0)" />
    <rect
       style="fill:#ffffff;fill-opacity:1"
       id="rect4019"
       width="4.8215785"
       height="5.4080968"
       x="37.445621"
       y="5.472013"
       transform="matrix(0.96219204,0.27237196,-0.2876496,0.95773572,0,0)" />
    <path
       style="fill:#fffcff;fill-opacity:1"
       d="M 11.148676,1.3174663 C 5.7437075,2.027922 1.8631355,6.8425053 2.317653,12.191153 3.6421794,11.175203 4.9746171,10.170093 6.3002481,9.1557051 8.3314483,7.601409 10.392877,6.0795961 12.406894,4.501353 14.077054,3.1925686 14.974108,2.4693424 15.755254,1.817215 14.324823,1.3169399 12.769706,1.10439 11.148676,1.3174663 z"
       id="path4027"
       inkscape:connector-curvature="0" />
    <rect
       style="fill:#fffcff;fill-opacity:1"
       id="rect4084"
       width="1.358022"
       height="3.2595091"
       x="2.4368277"
       y="11.455964"
       transform="matrix(0.71080551,-0.7033886,0.62519643,0.78046744,0,0)" />
    <path
       sodipodi:type="arc"
       style="fill:#fffcff;fill-opacity:1"
       id="path4086"
       sodipodi:cx="-33.714287"
       sodipodi:cy="13.928572"
       sodipodi:rx="1.1428572"
       sodipodi:ry="1.2142857"
       d="m -32.57143,13.928572 a 1.1428572,1.2142857 0 1 1 -2.285714,0 1.1428572,1.2142857 0 1 1 2.285714,0 z"
       transform="matrix(1.2393569,0,0,1.228579,53.596343,-7.4748527)" />
    <path
       sodipodi:type="arc"
       style="fill:#f6f3f3;fill-opacity:1"
       id="path4090"
       sodipodi:cx="-29.857143"
       sodipodi:cy="28.357143"
       sodipodi:rx="12.857142"
       sodipodi:ry="7.7857141"
       d="m -17.000001,28.357143 a 12.857142,7.7857141 0 0 1 -0.0182,0.41416"
       sodipodi:start="0"
       sodipodi:end="0.053219897"
       sodipodi:open="true"
       transform="translate(0.71428571,-1.4285714)" />
    <path
       sodipodi:type="arc"
       style="fill:#f6f3f3;fill-opacity:1"
       id="path4092"
       sodipodi:cx="-34.285713"
       sodipodi:cy="27.285715"
       sodipodi:rx="12.285714"
       sodipodi:ry="4.1428571"
       d="m -21.999999,27.285715 a 12.285714,4.1428571 0 0 1 -0.0174,0.220378"
       sodipodi:start="0"
       sodipodi:end="0.053219897"
       sodipodi:open="true" />
    <path
       sodipodi:type="arc"
       style="fill:#fffcff;fill-opacity:1"
       id="path4096"
       sodipodi:cx="23.142857"
       sodipodi:cy="14.571428"
       sodipodi:rx="15.285714"
       sodipodi:ry="7.4285712"
       d="M 38.428571,14.571428 A 15.285714,7.4285712 0 0 1 7.8653061,14.814179 L 23.142857,14.571428 z"
       sodipodi:start="0"
       sodipodi:end="3.1089088"
       transform="matrix(0.20749837,-0.19401254,0.13233698,0.08109311,7.2798085,15.90077)" />
    <path
       sodipodi:type="arc"
       style="fill:#fffcff;fill-opacity:1"
       id="path4096-2"
       sodipodi:cx="23.142857"
       sodipodi:cy="14.571428"
       sodipodi:rx="15.285714"
       sodipodi:ry="7.4285712"
       d="M 38.428571,14.571428 A 15.285714,7.4285712 0 0 1 7.8653061,14.814179 L 23.142857,14.571428 z"
       sodipodi:start="0"
       sodipodi:end="3.1089088"
       transform="matrix(0.27580157,-0.25381571,0.22002386,0.01132799,6.0895177,20.208863)" />
    <path
       sodipodi:type="arc"
       style="fill:#fffcff;fill-opacity:1"
       id="path4096-7"
       sodipodi:cx="23.142857"
       sodipodi:cy="14.571428"
       sodipodi:rx="15.285714"
       sodipodi:ry="7.4285712"
       d="M 38.428571,14.571428 A 15.285714,7.4285712 0 0 1 7.8653061,14.814179 L 23.142857,14.571428 z"
       sodipodi:start="0"
       sodipodi:end="3.1089088"
       transform="matrix(0.38445958,-0.3453084,0.03752311,0.18668288,8.0408043,21.172481)" />
  </g>
</svg>
