<?xml version="1.0" encoding="UTF-8" standalone="no"?>
<!-- Created with Inkscape (http://www.inkscape.org/) -->

<svg
   xmlns:dc="http://purl.org/dc/elements/1.1/"
   xmlns:cc="http://creativecommons.org/ns#"
   xmlns:rdf="http://www.w3.org/1999/02/22-rdf-syntax-ns#"
   xmlns:svg="http://www.w3.org/2000/svg"
   xmlns="http://www.w3.org/2000/svg"
   version="1.1"
   width="48"
   height="48"
   id="svg2991">
  <defs
     id="defs2993" />
  <metadata
     id="metadata2996">
    <rdf:RDF>
      <cc:Work
         rdf:about="">
        <dc:format>image/svg+xml</dc:format>
        <dc:type
           rdf:resource="http://purl.org/dc/dcmitype/StillImage" />
        <dc:title></dc:title>
      </cc:Work>
    </rdf:RDF>
  </metadata>
  <g
     id="layer1">
    <path
       d="M 5.7142859,30.142857 C 6.4305487,30.816144 5.1600869,31.440541 4.5952381,31.333333 3.0645329,31.042805 2.7599159,29.103093 3.3333338,27.904761 4.359044,25.761227 7.1843899,25.426448 9.0714291,26.571429 11.840735,28.251734 12.210976,32.064994 10.47619,34.619048 8.1639921,38.023199 3.3324528,38.427553 0.11904718,36.095237 -3.9246959,33.160255 -4.3624018,27.297686 -1.4285702,23.42857 2.124693,18.742553 9.0248446,18.271872 13.54762,21.809525 18.877554,25.978526 19.381015,33.92008 15.238094,39.095238 10.454927,45.070163 1.469544,45.606297 -4.3571438,40.857141 -10.977797,35.460848 -11.54654,25.429998 -6.1904742,18.952379 -0.18177775,11.68547 10.895699,11.084154 18.023811,17.047621 c 7.913556,6.620577 8.547421,18.745532 1.976187,26.523808"
       transform="matrix(1.2745459,0,0,1.3216708,15.128028,-12.888017)"
       id="path3005"
       style="fill:none;stroke:#000000;stroke-width:1px;stroke-linecap:butt;stroke-linejoin:miter;stroke-opacity:1" />
    <path
       d="m 23.142858,35.000001 -10.544311,0.227285 -3.4745333,-9.958001 8.3969323,-6.381669 8.664123,6.013913 z"
       transform="translate(14.285714,5.9999999)"
       id="path3003"
       style="fill:#ffff00;fill-rule:evenodd;stroke:#000000;stroke-width:1px;stroke-linecap:butt;stroke-linejoin:miter;stroke-opacity:1" />
    <path
       d="M 24.000001,12.714286 17.044059,12.338776 12.791294,17.856033 10.99892,11.124501 4.4375211,8.7848065 10.285715,5.0000002 10.483312,-1.9632666 15.890068,2.4291267 22.573589,0.46528519 20.066955,6.9647399 z"
       transform="translate(4.7705725,3.7887429)"
       id="path2999"
       style="fill:#ffff00;fill-rule:evenodd;stroke:#000000;stroke-width:1px;stroke-linecap:butt;stroke-linejoin:miter;stroke-opacity:1" />
  </g>
</svg>
